# xmcd
#
# Track frame offsets:
#	150
#	8332
#	16342
#	24527
#	31120
#	41167
#	50690
#	60685
#	68925
#	76737
#	82730
#	89460
#	99225
#	104702
#	111070
#	119467
#	124415
#	129292
#	140902
#	151337
#	157200
#	168670
#	177585
#	183227
#	190197
#	196107
#	202267
#	206532
#	215250
#	225150
#
# Disc length: 3104 seconds
#
# Revision: 1
# Processed by: cddbd v1.5.1PL0 Copyright (c) Steve Scherf et al.
# Submitted via: CDex 1.50Beta5
#
DISCID=9b0c1e1e
DTITLE=大和田りつこ - たのしいどうようベスト60 Disc 2
DYEAR=1999
DGENRE=
TTITLE0=森みゆき/おはなしゆびさん
TTITLE1=森みゆき/かわいいかくれんぼ
TTITLE2=たいらいさお/アイアイ
TTITLE3=しばたかの/かたつむり
TTITLE4=大和田りつこ/てをたたきましょう
TTITLE5=神崎ゆう子/めだかのがっこう
TTITLE6=春口雅子/うみ
TTITLE7=大和田りつこ/かもめのすいへいさん
TTITLE8=森みゆき/しゃぼんだま
TTITLE9=大和田りつこ/おつかいありさん
TTITLE10=宮内良/とんぼのめがね
TTITLE11=森みゆき/きしゃポッポ
TTITLE12=春口雅子/まつぼっくり
TTITLE13=しばたかの/おおきなくりのきのしたで
TTITLE14=大和田りつこ/ごんべえさんのあかちゃん
TTITLE15=宮内良/どんぐりころころ
TTITLE16=大和田りつこ/しょうじょうじのたぬきばやし
TTITLE17=神崎ゆう子/あかとんぼ
TTITLE18=神崎ゆう子/ゆうやけこやけ
TTITLE19=大和田りつこ/げんこつやまのたぬきさん
TTITLE20=森みゆき/ななつのこ
TTITLE21=たいらいさお/もりのくまさん
TTITLE22=大和田りつこ/おもちゃのマーチ
TTITLE23=しばたかの/おしょうがつ
TTITLE24=森みゆき/ゆき
TTITLE25=大和田りつこ/ぞうさん
TTITLE26=大和田りつこ/ふしぎなポケット
TTITLE27=春口雅子/そうだったらいいのにな
TTITLE28=森みゆき/ゆりかごのうた
TTITLE29=森みゆき/ハッピー・バースデイ・トゥ・ユー
EXTD=
EXTT0=
EXTT1=
EXTT2=
EXTT3=
EXTT4=
EXTT5=
EXTT6=
EXTT7=
EXTT8=
EXTT9=
EXTT10=
EXTT11=
EXTT12=
EXTT13=
EXTT14=
EXTT15=
EXTT16=
EXTT17=
EXTT18=
EXTT19=
EXTT20=
EXTT21=
EXTT22=
EXTT23=
EXTT24=
EXTT25=
EXTT26=
EXTT27=
EXTT28=
EXTT29=
PLAYORDER=
